<svg xmlns="http://www.w3.org/2000/svg" viewBox="0 0 111.81 59.8"><defs><style>.cls-1{fill:#ed1c24;}.cls-2{fill:none;stroke:#ed1c24;stroke-linecap:round;stroke-linejoin:round;stroke-width:3.8px;}</style></defs><title>icon-become-dealer</title><g id="Layer_2" data-name="Layer 2"><g id="Layer_1-2" data-name="Layer 1"><rect class="cls-1" y="2.2" width="20.57" height="41.13"/><path class="cls-1" d="M108,6V39.52H93.23V6H108m3.8-3.8H89.43V43.32h22.38V2.2Z"/><path class="cls-2" d="M20.57,9.45H27.5L45,2.2c1-.4,1.45-.38,5.93,0S64.33,3.61,64,7.84"/><path class="cls-2" d="M20.57,35h3.08L34.27,49S49.9,57.82,51.59,57.9s3.73-1.59,4.78-4.09"/><path class="cls-2" d="M48.47,49.37l12,6.21s4.11.4,5.32-4.51"/><path class="cls-2" d="M53.47,44l13.31,7.42s4.84,1.13,6.21-6.53"/><path class="cls-2" d="M60.16,35.9l13.47,8.61s4.71,2.48,7.5-1.19c1.84-2.43,2.66-4.6,0-6"/><path class="cls-1" d="M89.43,11.35H81.57s-19.8-4.6-25.2-4.6-22.7,6.9-24,7.5-1,11.38,18.13,4.51c0,0,29.1,20.24,30,20.25S85,35.9,88,35.9h3.39V11.11Z"/></g></g></svg>