<svg xmlns="http://www.w3.org/2000/svg" viewBox="0 0 87.96 79"><defs><style>.cls-1,.cls-2{fill:none;stroke:#ed1c24;stroke-miterlimit:10;stroke-width:4px;}.cls-2{stroke-dasharray:6;}.cls-3{fill:#ed1c24;fill-rule:evenodd;}</style></defs><title>icon-find-dealer</title><g id="Layer_2" data-name="Layer 2"><g id="Layer_1-2" data-name="Layer 1"><path class="cls-1" d="M75.77,38.66a2.91,2.91,0,0,0-2.91-2.91H15.1a2.91,2.91,0,0,0-2.91,2.91L2,74.09A2.91,2.91,0,0,0,4.91,77H83.05A2.91,2.91,0,0,0,86,74.09Z"/><path class="cls-2" d="M17,77S14.62,60.22,27.24,59.63s39.31,12.24,41.25,0-8.25-23.89-8.25-23.89"/><path class="cls-3" d="M63.69,17.14A20,20,0,0,0,47.39.32C46.71.19,46,.1,45.34,0H42.63c-.69.1-1.37.19-2.06.32A20,20,0,0,0,24.27,17.14a25.63,25.63,0,0,0,1.12,11.3,53.85,53.85,0,0,0,7.39,14.74,77.68,77.68,0,0,0,7.55,9.1c1.24,1.32,2.4,2.7,3.64,4.1,1.24-1.4,2.4-2.78,3.64-4.1a78.41,78.41,0,0,0,7.55-9.1,53.76,53.76,0,0,0,7.39-14.74A25.65,25.65,0,0,0,63.69,17.14ZM44,29.09h0a9.08,9.08,0,0,1,0-18.17h0a9.08,9.08,0,0,1,0,18.17Z"/></g></g></svg>