<svg xmlns="http://www.w3.org/2000/svg" viewBox="0 0 69 69"><defs><style>.cls-1{fill:#ed1c24;}</style></defs><title>icon-service</title><g id="Layer_2" data-name="Layer 2"><g id="Layer_1-2" data-name="Layer 1"><path class="cls-1" d="M1.89,58A6.46,6.46,0,0,0,11,67.11l21.2-21.23-9.13-9.13Zm0,0"/><path class="cls-1" d="M54.76,18.48l9.4-4.61L69,4.5,64.5,0,55.13,4.84,50.59,14.3,39.33,25.55l4.18,4.18Zm.16.16"/><path class="cls-1" d="M56.94,43.17l-.86-.09a12.78,12.78,0,0,0-4.48.84L25.08,17.4a12.79,12.79,0,0,0,.84-4.48l-.08-.86A12.82,12.82,0,0,0,7.45,1.28L16,9.89a3.87,3.87,0,0,1,1,1.54,4.28,4.28,0,0,1-4,5.8,3.94,3.94,0,0,1-1.49-.29A4,4,0,0,1,10,16L1.37,7.39a12.6,12.6,0,0,0-1.3,5.53A12.91,12.91,0,0,0,12.12,25.77l.88.08A13,13,0,0,0,17.46,25L44,51.54A13,13,0,0,0,43.14,56l.09.88A12.9,12.9,0,0,0,56.08,68.94a12.6,12.6,0,0,0,5.53-1.31L53,59a4.46,4.46,0,0,1-1-1.53,4.31,4.31,0,0,1,4-5.81,4.58,4.58,0,0,1,3,1.27l8.6,8.58A12.82,12.82,0,0,0,56.94,43.17Zm0,0"/></g></g></svg>