<svg xmlns="http://www.w3.org/2000/svg" viewBox="0 0 134.41 99.6"><defs><style>.cls-1{opacity:0.55;}.cls-2{fill:#fff;}</style></defs><title>logo-dfsk</title><g id="Layer_2" data-name="Layer 2"><g id="Layer_1-2" data-name="Layer 1"><g class="cls-1"><path class="cls-2" d="M67.2,0A32.67,32.67,0,1,0,99.88,32.67,32.67,32.67,0,0,0,67.2,0Zm0,61.12A28.45,28.45,0,1,1,95.66,32.67,28.45,28.45,0,0,1,67.2,61.12Z"/><path class="cls-2" d="M55.72,6.64s26.38-3.05,28.93,26a30.13,30.13,0,0,0,8.29-12.13S98.4,49.4,67.49,52.26c0,0,11.93-11.08,7-26.69C69.24,8.75,55.72,6.64,55.72,6.64Z"/><path class="cls-2" d="M78.72,58.65s-26.37,3.05-28.93-26A30.13,30.13,0,0,0,41.5,44.75S36,15.89,66.95,13c0,0-11.93,11.08-7,26.69C65.21,56.54,78.72,58.65,78.72,58.65Z"/><path class="cls-2" d="M24.67,75.2H0v6.2H20.58s2.83.41,2.83,2.42v8c0,1.7-1.09,2-1.09,2H8.63V84.33H0V99.6H25.24A5,5,0,0,0,30.42,95V81.4S30.62,77,24.67,75.2Z"/><rect class="cls-2" x="104.91" y="75.2" width="7.59" height="24.4"/><polygon class="cls-2" points="134.41 99.61 125.26 99.61 113.83 88.4 122.97 88.4 134.41 99.61"/><polygon class="cls-2" points="134.41 75.23 125.26 75.23 113.83 86.44 122.97 86.44 134.41 75.23"/><path class="cls-2" d="M41.35,75.2C37,76.33,35.7,81.4,35.7,81.4H62.25V75.2Z"/><polygon class="cls-2" points="43.49 83.82 35.7 83.82 35.7 99.61 44.14 99.61 44.14 90.39 62.25 90.39 62.25 83.82 44.14 83.82 43.49 83.82"/><path class="cls-2" d="M96.45,81.4V75.2H75.54c-6.42,1.4-6.65,6.2-6.65,6.2H96.45Z"/><path class="cls-2" d="M88.87,83.82h-20s-.45,4.83,7.62,6.56H88.87a1.73,1.73,0,0,1,1.66,1.89c0,1.86-2,2.12-2.53,2.12H69.57V99.6H88c2.5,0,9.68-.13,9.68-7.64C97.68,84.77,88.87,83.82,88.87,83.82Z"/></g></g></g></svg>